<?xml version="1.0" encoding="utf-8"?>
<!-- Generator: Adobe Illustrator 24.1.0, SVG Export Plug-In . SVG Version: 6.00 Build 0)  -->
<svg version="1.1" id="Calque_1" xmlns="http://www.w3.org/2000/svg" xmlns:xlink="http://www.w3.org/1999/xlink" x="0px" y="0px"
	 viewBox="0 0 370.8 407.8" style="enable-background:new 0 0 370.8 407.8;" xml:space="preserve">
<style type="text/css">
	.st0{fill:#EDF5F3;}
	.st1{fill:#F0F8F5;}
	.st2{fill:#BFE0E3;}
	.st3{fill:#5B9EA8;}
	.st4{fill:#F6D9B0;}
	.st5{fill:#EFBD69;}
	.st6{fill:#E49551;}
	.st7{fill:#3F6D84;}
	.st8{fill:#B06651;}
	.st9{fill:#E3AF9A;}
	.st10{font-family:'HiraKakuStd-W8-83pv-RKSJ-H';}
	.st11{font-size:12px;}
</style>
<path class="st0" d="M301.3,0.6c3.9-0.9,7.6-0.9,11,1.4c-2.8-0.2-5.5-0.3-8.3-0.5C303.1,1.4,302.2,0.9,301.3,0.6z"/>
<path class="st1" d="M330.3,52c-1.5-0.2-3-0.3-4.5-0.5C327.8,49.9,329.6,50.1,330.3,52z"/>
<path class="st0" d="M313.3,2.1c0.7,0.3,1.4,0.6,2,0.9C314.2,3.6,313.3,4,313.3,2.1z"/>
<path class="st0" d="M298.3,1.5c0.7-0.3,1.4-0.6,2.1-0.9C299.7,0.9,299,1.2,298.3,1.5z"/>
<g>
	<path class="st2" d="M113.8,97.4c3.7,7.9,12.6,11.6,20.4,8.2c4.2-1.8,8-4.3,12.2-6.2c8.5-4,14.6-2.8,19.9,4.9
		c3.4,4.9,7.9,7.6,13.1,9.7c3.9,1.5,7.3,5.3,7.5,9.6c0.2,4.6-3.6,8.3-6.8,9.4c-6.1,2.1-12.5,1.6-18.7,1.2
		c-9.6-0.7-18.8-4.1-28.5-3.3c-8.7,0.7-17.1,2.5-25.4,5.2c-3.5,1.1-7.2,1.9-10.7,2.8c-0.5,0.1-0.9,0.3-1.3,0.5
		c-7.4,1.5-14.9,2.3-22.5,2c-4.9-0.2-9.6-1.2-14-3.6c-6-3.2-7.2-9.5-6.2-14.7c1.2-6.1,4.2-9,10.3-10.2c6.2-1.1,11.2-4.5,15.7-8.6
		c4.7-4.2,9.1-8.7,13.7-13.1c5.2-5,10.3-5.1,15.5,0C109.8,93.2,111.8,95.3,113.8,97.4z"/>
	<path class="st2" d="M319.3,146.5c-1.1,0.4-2.3,0.6-3.2,1.2c-7.3,5-15.3,5.4-23.4,3.4c-7.1-1.8-14.1-4.3-21.2-6.3
		c-5.2-1.5-10.5-1.9-15.6,0.2c-2.7,1.1-5.2,2.9-7.5,4.7c-3.9,3.2-8.2,5.2-13.4,5.2c-5.1,0-10.2,0.4-14.9-2c-2.9-1.6-6-3.4-8.2-5.8
		c-3.3-3.6-6.3-7.8-6.1-13.2c0.1-3.4,2.8-7.3,6-8.5c9.4-3.8,19.2-4.1,29.1-3c5.6,0.6,11.1,1.5,16.7,2c4.4,0.4,8.1-1.1,10.4-5
		c2.2-3.8,6-4.9,9.8-4.9c4.5,0,9,0.9,13.5,1.3c6.6,2.2,11.7,6.7,17,10.9c4.7,3.8,10,5.9,15.9,6c4.3,0.1,8.7-0.7,13.1-1.2
		c6.5-0.7,12.5-0.3,17.2,5.1c2.6,2.9,0.8,10.3-3,11.9c-3.8,1.5-7.2,1.4-10.8,0.1c-1.2-0.4-2.5-0.7-3.8-1c-0.7-0.3-1.4-0.6-2-0.9
		c-0.3,0-0.6,0-0.9-0.1c-3.4-2.4-7.2-2.3-11-1.4c-0.3,0-0.7,0-1,0c-0.7,0.3-1.4,0.6-2.1,0.9C319.6,146.4,319.5,146.4,319.3,146.5z"
		/>
	<path class="st2" d="M97.2,199.4c-8.3,0.6-16.5,1.5-24.8,1.9s-16.7,0.9-25.1-0.2c-7.5-1-15.2-0.5-22.8-0.7c-2.9-0.1-5.8-0.4-8.6-1
		c-4.6-1-6.2-4.8-3.5-8.7c1.7-2.4,4.1-4.2,6.4-6.1c3.7-3.2,7.4-6.4,11.3-9.2c3.3-2.3,7.2-4.1,11.4-3.8c2,0.1,4.4,0.8,5.9,2.1
		c7.2,6.1,15.2,8,24.4,6.4c4.2-0.7,8.6-0.8,12.9-1.1c0.7,0,1.3,0,2,0c1.5,0.2,3,0.3,4.5,0.5c3.5,1.2,7.2,2,10.5,3.6
		c4.2,2,6.1,6.1,5.4,11c-0.5,3.3-3.4,3.8-5.8,4.7C100.1,199.2,98.6,199.2,97.2,199.4z"/>
	<path class="st3" d="M191.8,357c2.1-0.2,4.3-0.4,6.5-0.6c0.2,0.1,0.4,0.3,0.6,0.4c1.3,0.7,2.7,1.6,4.1,2.3c1.6,2.6,1.5,2.7-1,2.9
		c-1.6,0.1-3.3,0.1-4.8,0.2c-0.1,0-0.3,0-0.4-0.1C192.4,362,192.4,362,191.8,357z"/>
	<path class="st3" d="M145,352.7c1.8,1.1,3.7,2.3,5.5,3.4c0.1,0.2,0.2,0.5,0.2,0.7c0.6,1.4,1.2,2.9,1.8,4.3c-0.3,3-0.5,3.1-2.5,1.7
		c-1.3-0.9-2.7-1.9-3.9-2.8c-0.1-0.1-0.2-0.2-0.3-0.3C142.4,357,142.4,357,145,352.7z"/>
	<path class="st4" d="M259.2,173.1c9.6,0,19.1,0.4,28.7,0c12.4-0.6,22.8,8.2,23.2,22.4c0.2,9.3,0.9,18.4,1.9,27.6
		c1.1,10.4-7.2,17.4-16.9,17.6c-20.2,0.2-40.4,0-60.6,0c-10.4,0-19.3-9.5-19.8-19.3c-0.6-10.9-2-21.7-2.6-32.6
		c-0.4-8.3,7.4-15.8,15.8-15.8C238.8,173.1,249,173.1,259.2,173.1z"/>
	<path class="st5" d="M179.3,296.5c-0.5,0.6-1.3,1.2-1.4,2c-1.9,8-3.5,16-5.7,23.9c-1.2,4-3.4,7.7-5.5,11.3
		c-4.2,7.6-8.6,15.1-13,22.6c-0.2,0.4-0.6,0.8-0.9,1.2c-2.3-1.4-4.5-2.7-6.8-4.1c1.8-4.7,3.6-9.4,5.5-14.1c2.2-5.5,4.7-11,6.8-16.5
		c0.6-1.7,0.8-3.5,1-5.3c1.3-11.4,2.5-22.9,3.8-34.3c0.2-1.6,0.1-3.1,0.4-4.7c0.3-2.5,0.8-5,1.2-7.5c1.8,0.5,3.6,1.3,5.5,1.4
		c7.2,0.2,14.5,0.7,21.6-1.5c0.6,3.7,1.2,7.4,1.8,11.1c-3.3,1.1-6.6,2.4-10,3.4c-2.6,0.8-4.1,2.4-4.2,5.1
		C179.3,292.4,179.3,294.4,179.3,296.5z"/>
	<path class="st3" d="M193.2,269.2c-7.1,2.2-14.4,1.7-21.6,1.5c-1.8-0.1-3.7-0.9-5.5-1.4c-2.2-2.1-2.8-4.7-1.8-7.5
		c2.7-7.6,1.5-15-0.5-22.4c-1-3.7-1.5-7.4-2.3-11.1c2,0.5,4,1.2,6,1.5c4.2,0.7,8.5,1.2,12.8,1.8c4.7,0.7,8.9,0,12-4.1
		c0.2-0.3,0.6-0.4,1.7-1.2c0.2,2.8,0.6,5,0.5,7.2c0,2.6-0.4,5.2-0.6,7.8c-0.2,1.7-0.6,3.4-0.4,5c0.4,5.1,0.9,10.2,1.6,15.3
		C195.5,264.5,195.3,267,193.2,269.2z"/>
	<path class="st6" d="M179.6,295.5c0-2,0-4,0.1-6.1c0.1-2.7,1.6-4.3,4.2-5.1c3.4-1,6.7-2.3,10-3.4c1.4,9.2,3.5,18.3,4.1,27.5
		c1,15.9,1.2,31.8,1.7,47.7c0,0.7-0.3,1.4-0.4,2.1c-2.3,0-4.7,0-7,0c-0.6-2.6-1.4-5.1-1.8-7.7c-2.5-15.6-4.2-31.3-8.7-46.4
		C180.8,301.3,180.2,298.4,179.6,295.5z"/>
	<path class="st7" d="M193.9,241.3c0.2-2.6,0.6-5.2,0.6-7.8c0-2.2-0.3-4.4-0.5-7.2c-1.1,0.7-1.4,0.9-1.7,1.2
		c-3.1,4.1-7.3,4.7-12,4.1c-4.3-0.6-8.5-1.1-12.8-1.8c-2-0.3-4-1-6-1.5c-0.5-1.3-1.1-2.6-1.4-3.9c-0.5-2.4,1-5.2,3.5-6.7
		c5.1,1.4,10.1,3,15.2,4.1c7.2,1.5,7.2,1.3,10.4-5.3c0.1-0.1,0.1-0.3,0.1-0.5c1.9-4.5,3.7-9.1,5.6-13.6c1.8,0,3.6-0.1,5.4-0.1
		c-1.5,6.2-2.9,12.4-4.7,18.5c-0.7,2.2-0.9,3.8,0.3,5.8c1.5,2.5,2.9,5,4.2,7.7c1,2.1,2.3,2.4,4.4,1.8c5.1-1.5,10.2-2.9,15.3-4.3
		c0,2.4,1.6,3.6,3.4,4.7c-2,1-3.9,2.1-6,3c-4.1,1.7-8.1,3.4-12.3,4.9C199.5,246.4,197.6,245.8,193.9,241.3z"/>
	<path class="st8" d="M169.3,215.8c-1.9-1.9-4.1-3.3-7-3.2c-0.8,0-2.1-0.9-2.3-1.7s0.6-2.1,1.3-2.6c2-1.2,1.8-2.4,0.8-4
		c-2.7-4.4-2.6-4.5,1.6-7.7c1-0.8,1.9-1.8,2.5-3c2.1-4.2,5.7-6,10.2-4.4c3,1.1,6,2.3,8.5,3.9c1.2,0.8,1.8,3,2.1,4.6
		c0.2,1.1-0.3,2.5-0.8,3.5c-1.1,3.1-0.9,5.6,2,7.8c2.7,2.1,2.4,4.1-0.5,6.1c-2,0-3.9,0-5.9,0c-1.8-0.9-2.6-3.8-1.2-4.8
		c3.5-2.5,2.5-6.1,2.4-9.5c0-0.3-0.6-1-0.9-1c-3.1,0.2-6.5-1.2-9.2,1.5c-0.9,0.9-2.3,1.3-4,2.2c1.4,1.8,2.8,3.5,4.3,5.2
		c1.9,2.1,2,4.4,0,6.6C172,215.8,170.7,215.8,169.3,215.8z"/>
	<path class="st3" d="M169.3,214.8c1.3,0,2.7,0,4,0c1.5,0.8,2.9,2,4.5,2.4c2.3,0.7,3.8-0.6,4.1-2.8c2,0,3.9,0,5.9,0
		c0.5,0.5,1,1.1,1.5,1.6c0,0.2-0.1,0.3-0.1,0.5c-3.2,6.6-3.3,6.8-10.4,5.3c-5.1-1.1-10.1-2.7-15.2-4.1
		C165.6,216.7,167.4,215.8,169.3,214.8z"/>
	<path class="st9" d="M202.2,200.4c-1.8,0-3.6,0.1-5.4,0.1c0.7-6.3,0-6.8,7.4-9.3c0.6,0.8,1.1,1.5,1.6,2.2
		C204.7,195.8,203.4,198.1,202.2,200.4z"/>
	<path class="st9" d="M182.2,215.5c-0.3,2.2-1.8,3.5-4.1,2.8c-1.6-0.5-3-1.6-4.5-2.4c2-2.2,1.9-4.6,0-6.7c-1.5-1.7-2.9-3.6-4.3-5.3
		c1.7-0.9,3.1-1.4,4-2.2c2.8-2.7,6.1-1.3,9.2-1.5c0.3,0,0.9,0.6,0.9,1c0.1,3.4,1,7-2.4,9.6C179.5,211.6,180.3,214.6,182.2,215.5z"/>
	<text transform="matrix(1 0 0 1 226.3466 195.8785)"><tspan x="0" y="0" class="st7 st10 st11">Les atouts</tspan><tspan x="28" y="14.4" class="st7 st10 st11">de</tspan><tspan x="3.1" y="28.8" class="st7 st10 st11">votre site</tspan></text>
</g>
</svg>
