<?xml version="1.0" encoding="utf-8"?>
<!-- Generator: Adobe Illustrator 24.1.0, SVG Export Plug-In . SVG Version: 6.00 Build 0)  -->
<svg version="1.1" id="Calque_1" xmlns="http://www.w3.org/2000/svg" xmlns:xlink="http://www.w3.org/1999/xlink" x="0px" y="0px"
	 viewBox="0 0 151.1 170" style="enable-background:new 0 0 151.1 170;" xml:space="preserve">
<style type="text/css">
	.st0{fill:#020202;}
</style>
<g>
	<path class="st0" d="M96.5,76.8c2.1,5.6,2,11.1-0.1,16.8c3.1,1.8,6,3.5,9.1,5.2c0.4,0.2,1.3-0.1,1.9-0.3c3.6-1.8,7.7-1.2,10.3,1.7
		c2.5,2.7,3,6.9,1.1,10.1c-1.9,3.2-5.7,4.9-9.3,4c-3.8-0.9-6.3-4-6.6-8.1c-0.1-0.7-0.6-1.7-1.3-2.1c-2.7-1.7-5.5-3.2-8-4.7
		c-2.4,1.9-4.5,3.9-6.9,5.3c-2.4,1.4-5.1,2.2-8.1,3.4c0,3.1,0,6.6,0.1,10.1c0,0.5,0.7,1,1.1,1.3c3.5,2.3,5,6,3.8,9.7
		c-1.1,3.7-4.4,6.1-8.3,6.1c-3.7,0-7-2.5-8-6.1c-1.1-3.7,0.4-7.4,3.9-9.7c0.5-0.3,1.1-1,1.1-1.5c0.1-3.4,0.1-6.8,0.1-10.2
		c-6-1.1-10.9-3.7-14.7-8.5c-3.1,1.8-6.1,3.4-9,5.2c-0.4,0.3-0.7,1.2-0.7,1.8c-0.3,4.1-2.7,7.2-6.5,8.2c-3.6,0.9-7.4-0.8-9.3-4
		c-1.9-3.3-1.4-7.4,1.3-10.2c2.7-2.8,6.6-3.3,10.4-1.5c0.5,0.3,1.4,0.4,1.9,0.2c2.5-1.3,4.9-2.8,7.3-4.2c0.5-0.3,1-0.6,1.6-1
		c-2.1-5.6-2.1-11.2,0-16.9c-3.1-1.8-6.1-3.6-9.2-5.3c-0.4-0.2-1.3,0.2-1.9,0.5C39.2,74,34,72.3,32,68c-2.1-4.4-0.2-9.6,4.2-11.4
		c4.5-1.9,9.6,0.2,11.4,4.8c0.2,0.5,0.5,1.1,0.4,1.7c-0.4,2.3,1,3.3,2.8,4.2c2.4,1.2,4.6,2.6,6.9,3.9c5.2-5.1,6.4-6.2,14.8-8.5
		c0-3.4,0.1-6.8-0.1-10.3c0-0.6-0.8-1.2-1.4-1.6c-3.3-2.2-4.7-5.9-3.6-9.6c1.1-3.6,4.4-6,8.1-6.1c3.8,0,7.1,2.5,8.2,6.2
		c1,3.6-0.4,7.4-3.6,9.4c-1.2,0.7-1.5,1.5-1.4,2.8c0.1,2.9,0,5.8,0,8.7c0,0.1,0.1,0.3,0.1,0.3c2.7,1.1,5.5,1.9,8,3.3
		c2.4,1.4,4.5,3.4,7,5.3c2.7-1.5,5.8-3.2,8.7-5.1c0.5-0.3,0.5-1.4,0.6-2.1c0.3-4.3,3.6-7.6,7.8-8c4.1-0.4,7.9,2.3,8.9,6.4
		c1.1,4.1-1,8.3-5,9.9c-2.5,1-5,0.9-7.3-0.4c-1-0.6-1.8-0.5-2.7,0c-2.5,1.5-5.1,3-7.7,4.5C96.9,76.3,96.8,76.5,96.5,76.8z
		 M85.3,95.9c0-2.7,0-5.3,0-7.9c0-2.1-1.2-3.1-3.1-3.2c-4.5-0.1-8.9-0.1-13.4,0c-1.6,0-2.9,0.8-3,2.5c-0.1,2.8,0,5.6,0,8.5
		C72.3,95.9,78.7,95.9,85.3,95.9z M81,75.8c-0.1-3-2.6-5.5-5.6-5.4c-3,0.1-5.3,2.5-5.3,5.5c0,3,2.5,5.5,5.5,5.5
		C78.6,81.3,81.1,78.8,81,75.8z"/>
</g>
</svg>
