<?xml version="1.0" encoding="utf-8"?>
<!-- Generator: Adobe Illustrator 24.1.0, SVG Export Plug-In . SVG Version: 6.00 Build 0)  -->
<svg version="1.1" id="Calque_1" xmlns="http://www.w3.org/2000/svg" xmlns:xlink="http://www.w3.org/1999/xlink" x="0px" y="0px"
	 viewBox="0 0 1920 1080" style="enable-background:new 0 0 1920 1080;" xml:space="preserve">
<style type="text/css">
	.st0{fill:#020202;}
</style>
<g>
	<path class="st0" d="M996.9,528.2c3.5,9.6,3.5,18.9-0.1,28.5c5.2,3,10.2,6,15.4,8.8c0.8,0.4,2.2-0.1,3.2-0.6
		c6.1-3.1,13.1-2,17.6,2.8c4.3,4.6,5.1,11.7,1.9,17.1c-3.2,5.5-9.7,8.3-15.8,6.8c-6.5-1.6-10.6-6.9-11.2-13.8
		c-0.1-1.3-1.1-2.9-2.1-3.6c-4.5-2.9-9.3-5.5-13.7-8c-4,3.2-7.6,6.6-11.7,9.1c-4.1,2.4-8.7,3.7-13.8,5.8c0,5.2-0.1,11.2,0.1,17.1
		c0,0.8,1.1,1.7,1.9,2.3c5.9,3.9,8.4,10.3,6.5,16.6c-1.9,6.3-7.5,10.4-14.1,10.3c-6.3,0-11.9-4.3-13.6-10.4
		c-1.8-6.4,0.7-12.5,6.6-16.5c0.9-0.6,1.9-1.7,2-2.6c0.2-5.7,0.1-11.5,0.1-17.4c-10.1-1.8-18.5-6.4-24.9-14.5
		c-5.2,3-10.4,5.8-15.3,8.9c-0.8,0.5-1.2,2-1.2,3.1c-0.4,7.1-4.6,12.3-11.1,13.9c-6.2,1.5-12.6-1.3-15.8-6.7
		c-3.3-5.6-2.4-12.6,2.1-17.3c4.7-4.8,11.3-5.7,17.6-2.5c0.9,0.5,2.4,0.7,3.2,0.3c4.2-2.2,8.3-4.7,12.5-7.1c0.8-0.5,1.6-1,2.6-1.7
		c-3.6-9.5-3.5-19,0-28.7c-5.3-3.1-10.4-6.1-15.7-9c-0.7-0.4-2.2,0.4-3.2,0.8c-7.4,3.7-16.2,0.8-19.7-6.5
		c-3.6-7.4-0.3-16.3,7.2-19.5c7.7-3.3,16.4,0.3,19.4,8.2c0.3,0.9,0.8,1.9,0.7,2.8c-0.6,3.9,1.8,5.6,4.8,7.1c4,2.1,7.9,4.4,11.8,6.6
		c8.9-8.7,11-10.6,25.2-14.5c0-5.7,0.1-11.6-0.1-17.5c0-1-1.4-2.1-2.4-2.8c-5.6-3.7-8-10.1-6.1-16.4c1.8-6,7.5-10.3,13.8-10.3
		c6.4,0,12.1,4.3,13.9,10.6c1.7,6.1-0.6,12.5-6.2,16c-2,1.2-2.5,2.6-2.5,4.7c0.1,4.9,0.1,9.8,0.1,14.7c0,0.2,0.1,0.5,0.1,0.5
		c4.6,1.8,9.4,3.2,13.5,5.5c4.1,2.3,7.6,5.7,11.9,9.1c4.6-2.6,9.8-5.5,14.8-8.7c0.8-0.5,0.9-2.3,1-3.6c0.6-7.2,6-13,13.2-13.6
		c7-0.6,13.4,4,15.2,10.8c1.8,6.9-1.7,14.2-8.4,16.9c-4.2,1.7-8.5,1.6-12.4-0.7c-1.8-1-3-0.9-4.6,0.1c-4.3,2.6-8.7,5.1-13,7.6
		C997.5,527.5,997.3,527.8,996.9,528.2z M977.8,560.7c0-4.6,0-9,0-13.4c0-3.5-2-5.3-5.2-5.4c-7.6-0.2-15.2-0.1-22.8,0
		c-2.7,0-4.9,1.4-5,4.3c-0.2,4.7-0.1,9.5-0.1,14.4C955.8,560.7,966.5,560.7,977.8,560.7z M970.5,526.5c-0.1-5.2-4.4-9.3-9.5-9.1
		c-5,0.2-9,4.3-9,9.3c0,5.2,4.2,9.4,9.3,9.3C966.5,536,970.6,531.7,970.5,526.5z"/>
</g>
</svg>
