<?xml version="1.0" encoding="utf-8"?>
<!-- Generator: Adobe Illustrator 24.1.0, SVG Export Plug-In . SVG Version: 6.00 Build 0)  -->
<svg version="1.1" id="Calque_1" xmlns="http://www.w3.org/2000/svg" xmlns:xlink="http://www.w3.org/1999/xlink" x="0px" y="0px"
	 viewBox="0 0 1920 1080" style="enable-background:new 0 0 1920 1080;" xml:space="preserve">
<style type="text/css">
	.st0{fill:#020202;}
</style>
<g>
	<path class="st0" d="M924.1,470c-7.6,0-15.2,0-22.8,0c-0.5,0-1.3,0.7-1.3,1.2c-3.1,10-12.1,6.1-19.1,6.8c-0.8,0-1.8-0.2-2.6-0.5
		c-6.3-4.4-3.4-10.7-3.4-16.3c0-4.4,3.7-5.8,7.6-5.8c3.4,0,7.1-0.2,10.5,0.2c1.8,0.2,4.5,1.5,4.7,2.7c1.6,6.8,6.8,6.1,12.3,6.1
		c10,0,20.2,0,30.1,0c3.7,0,6.6-0.2,8.1-4.4c0.5-1.7,3.7-4.1,5.5-4.1c7.1,0,15.7-3.4,19.1,6.6c0.3,1,3.1,1.9,5,1.9
		c12.3,0.2,24.4,0.2,36.7,0c2.1,0,5-2.2,6-3.9c2.9-4.6,8.9-6.3,18.1-4.6c5.8,1,6.6,4.6,6.3,9c0,1.9,0,4.1,0,6.1
		c0,4.9-2.4,7.5-7.9,7.5c-3.4,0-7.1,0-10.5-0.2c-1.3,0-3.7-0.7-3.9-1.7c-3.1-9.5-11.5-6.6-18.3-6.8c-2.9-0.2-5.8,0.5-8.6,0.7
		c-0.3,0.5-0.3,1-0.5,1.5c1.6,1.2,3.1,2.4,5,3.4c15.7,9.2,26.5,22.1,32,38.6c1.3,3.6,2.6,6.6,7.9,6.8c1.6,0,4.2,2.2,4.5,3.6
		c0.5,4.9,0.8,9.7,0,14.3c-0.3,1.5-3.1,3.6-5,3.9c-4.2,0.5-8.6,0.5-13.1,0c-1.6,0-3.4-1.2-4.2-2.4c-3.1-3.6-1-16.5,2.4-19.7
		c1.3-1.5,2.6-4.4,2.1-6.1c-8.1-22.1-24.6-36.4-48.8-42.8c-1.6-0.5-4.2,0.5-5.5,1.7c-6,6.6-18.9,6.6-24.9,0.2
		c-1.3-1.2-4.2-2.2-6-1.9c-23.6,6.3-39.8,20.4-48,42c-0.8,1.9,0.8,5.3,2.4,7c3.4,3.6,5.5,17.7,1.3,19.4c-5.2,2.2-12.1,2.2-18.1,1.7
		c-1.8-0.2-3.7-5.1-4.5-8.3c-0.8-2.4-0.5-5.3,0.3-7.8c0.5-2.2,2.6-5.3,4.2-5.3c6.6-0.2,7.3-4.6,8.9-8.7
		c5.8-15.8,16.3-27.9,31.5-36.9c1.8-1,3.4-2.2,5-3.4C924.4,471.3,924.4,470.5,924.1,470z M886.6,460.8c-4.7-0.7-6.6,1.2-6.6,5.8
		c0,4.6,1.8,6.3,6.8,6.3c5.2,0,6.8-1.9,6.8-6.6C893.7,462.3,891.9,460.3,886.6,460.8z M893.5,531.8c0.5-4.1-1-6.6-6-6.6
		c-4.5,0-7.6,0.7-7.3,5.8c0,4.4,1,6.8,6.6,6.8C891.1,537.8,894.3,536.6,893.5,531.8z M1026.1,531.5c-0.5,4.4,1.6,6.3,6.3,6.3
		c5,0,7.1-1.5,7.1-6.3c0-4.4-1.6-6.3-6.6-6.3C1028.2,525.2,1025.6,526.7,1026.1,531.5z M1032.9,473c5.2,0.7,6.6-1.9,6.6-6.3
		c0-4.6-2.1-5.8-6.8-5.8c-5.2,0-6.8,1.9-6.8,6.6C1026.1,471.7,1028.2,473.4,1032.9,473z M966.3,466.4c0.8-4.6-2.1-5.6-6.6-5.6
		c-5.2-0.2-6.8,1.9-6.8,6.6c0,4.4,2.1,5.8,6.8,5.8C965,473.2,966.9,471.3,966.3,466.4z"/>
	<path class="st0" d="M954.3,500.2c-1.6,2.4-3.1,4.6-4.7,7c-11,17.5-21.8,35-33,52.5c-2.9,4.4-1.8,6.6,1.8,10.2
		c4.7,4.9,8.1,11.2,11.5,17.3c0.5,1-0.8,3.2-1.3,4.6c-1.3-1-3.4-1.9-3.9-3.2c-2.1-7.5-7.1-13.1-13.4-17.5c-4.2-2.9-4.7-6.3-2.4-10
		c14.7-23.6,29.4-47.4,44.3-70.9c3.7-5.8,8.6-5.8,12.6,0.2c14.7,23.3,29.4,46.9,44,70.5c2.6,4.1,2.4,7.5-2.4,10.4
		c-6.3,4.1-11,9.7-13.1,17c-0.5,1.5-2.4,2.4-3.7,3.6c-0.5-1.7-1.8-3.6-1.6-5.1c1.6-7.3,6-13.4,12.6-18c2.9-1.9,3.9-4.1,1.8-7.3
		c-12.3-19.7-24.4-39.1-36.7-58.8c-0.5-0.7-1.3-1.5-3.1-3.4c-0.5,3.2-1.3,5.3-1.3,7.5c0,13.1-0.3,26.2,0.3,39.4
		c0,2.9,2.1,6.3,4.5,8.5c5.2,4.9,6.3,11.9,1.3,16.8c-4.7,4.6-12.6,4.6-17.6,0c-5-4.6-4.7-12.4,1.3-16.5c3.7-2.7,4.7-5.3,4.7-9.2
		c-0.3-13.1,0-26.2,0-39.4c0-1.9-0.5-3.9-0.8-5.8C955.6,500.7,954.8,500.4,954.3,500.2z M960,555.6c-3.1,3.6-6.3,5.8-6.3,8
		c0,2.2,3.1,5.1,5.5,5.8c3.7,1,7.1-1.5,6.6-5.3C965.5,561.6,962.9,559.5,960,555.6z"/>
	<path class="st0" d="M959.8,625.3c-10.5,0-21,0-31.5,0c-7.6,0-9.4-1.7-9.4-8.5c-0.5-17.3-0.5-17.3,18.1-17.3c17.8,0,35.6,0,53.7,0
		c8.4,0,10,1.7,10.2,9.2c0.5,16.5,0.5,16.5-17.3,16.5C975.5,625.3,967.6,625.3,959.8,625.3z M959.5,604.7c-9.4,0-18.9,0.2-28,0
		c-6.3-0.2-7.1,3.2-7.1,7.8c0,4.4,0,8,6.8,8c18.9-0.2,38-0.2,56.9,0c6.8,0,6.8-3.6,7.1-8.3c0.3-5.1-1.6-7.5-7.3-7.3
		C978.4,604.9,969,604.7,959.5,604.7z"/>
</g>
</svg>
