<?xml version="1.0" encoding="utf-8"?>
<!-- Generator: Adobe Illustrator 24.1.0, SVG Export Plug-In . SVG Version: 6.00 Build 0)  -->
<svg version="1.1" id="Calque_1" xmlns="http://www.w3.org/2000/svg" xmlns:xlink="http://www.w3.org/1999/xlink" x="0px" y="0px"
	 viewBox="0 0 1920 1080" style="enable-background:new 0 0 1920 1080;" xml:space="preserve">
<style type="text/css">
	.st0{fill:#070707;}
	.st1{fill:#050505;}
	.st2{fill:#585356;}
	.st3{fill:#605D5E;}
	.st4{fill:#3E3A3E;}
	.st5{fill:#413B3F;}
</style>
<path class="st0" d="M803.4,497.6c1.7-4.2,3.3-8.1,5-12.2c2.3,0.9,4.4,1.8,6.5,2.6c3.7,1.5,7.3,0.7,10.2-2.2c3-3,3.8-6.7,2.2-10.4
	c-0.9-2.1-1.8-4.2-2.7-6.5c4-1.7,8-3.4,12.1-5.2c0.9,2.2,2,4.3,2.8,6.4c2.2,6.3,12,7.7,16.2,2.3c1.3-1.6,1.8-3.7,2.7-5.6
	c0.5-1.1,0.9-2.1,1.4-3.4c4.1,1.6,8,3.2,12.2,4.9c-0.9,2.2-1.7,4.3-2.5,6.3c-1.5,3.8-0.8,7.5,2.2,10.4c3,2.8,6.4,3.9,10.4,2.2
	c2.1-0.9,4.2-1.7,6.4-2.7c1.7,4.1,3.4,8,5.2,12.1c-2.2,0.9-4.2,1.8-6.3,2.7c-3.9,1.7-5.8,4.7-5.7,9.1c0.1,4.1,1.9,7.1,5.8,8.6
	c2.1,0.8,4.2,1.7,6.4,2.6c-1.6,4.1-3.2,8-4.9,12.2c-2.1-0.8-4.2-1.6-6.2-2.5c-3.9-1.6-7.5-0.9-10.5,2.2c-3,3-3.7,6.7-2.1,10.6
	c0.8,2,1.7,3.9,2.6,6.2c-4.1,1.7-8,3.4-12.1,5.2c-0.9-2.1-1.8-4.2-2.6-6.2c-1.7-3.9-4.8-5.9-9-5.9c-4.3,0-7.3,2.1-8.9,6.1
	c-0.8,2-1.6,4-2.5,6.2c-4.1-1.6-8-3.2-12.2-4.9c0.8-2.1,1.6-4.2,2.4-6.2c1.6-4,0.9-7.7-2.1-10.5c-3.1-2.9-6.5-3.9-10.6-2.1
	c-2,0.9-3.9,1.7-6.2,2.6c-1.7-4-3.4-8-5.2-12.1c2.1-0.9,4.2-1.8,6.2-2.6c3.9-1.7,6-4.9,5.9-9.2c-0.1-4.2-2-7.2-6-8.7
	C807.7,499.3,805.7,498.5,803.4,497.6z M848.5,528.3c10.9,0.1,19.6-8.6,19.7-19.5c0.1-10.8-8.6-19.7-19.3-19.7
	c-11-0.1-19.9,8.6-20,19.5C828.9,519.4,837.7,528.2,848.5,528.3z"/>
<path class="st0" d="M771,446.7c9.4-0.1,18.9-0.2,28.3-0.3c1.3,0,2.5,0.1,3.8,0.1c38.7,0,77.3,0,116,0c2.4,0,4.7,0.4,7.1,0.7
	c4.9,2.7,6.9,6.8,6.9,12.4c-0.1,36.8-0.1,73.5,0,110.3c0,4.2-1.1,7.9-4.6,10.1c-2.1,1.3-4.8,2.3-7.3,2.3
	c-48.6,0.1-97.3,0.1-145.9,0.1c-6.4,0-10.2-3.1-11.6-8.9c0.3-1.2,0.8-2.3,0.8-3.5c0-37,0-74,0-111c0-1.2-0.5-2.3-0.8-3.5
	C764.2,450.9,767.4,448.6,771,446.7z M921.7,553.4c0.3-1.1,1-2.2,1-3.3c0.1-29.3,0.1-58.7,0-88c0-1.1-0.6-2.3-0.9-3.4
	c-1.2-0.3-2.5-0.9-3.7-0.9c-43.6-0.1-87.1-0.1-130.7-0.1c-4.3,0-8.6,0.3-12.9,0.5c-0.2,0.1-0.3,0.1-0.5,0.2c0.2,0.2,0.3,0.3,0.5,0.5
	c0.1,1.2,0.2,2.5,0.2,3.7c0,29.8,0,59.5,0,89.3c0,1.1-0.1,2.3-0.2,3.4c-1.5,1-1.6,2,0,3c1.1,0.4,2.3,1.2,3.4,1.2
	c46.6,0.1,93.2,0,139.8,0c1.2,0,2.4,0,3.7,0C921.5,557.3,921.6,555.4,921.7,553.4z"/>
<path class="st1" d="M815.1,610.4c1.2-0.4,2.3-0.9,3.5-1.3c7.5-2.2,11.7-7.2,12.5-15.2c11.1,0,22.3,0,33.6,0
	c0.4,1.5,0.6,3.1,1.2,4.7c2.1,6.1,6.7,9.3,12.7,10.8c2.8,0.7,4.1,2.1,3.4,5c-1.7,0.3-3.3,0.8-5,0.8c-19,0.1-38.1,0-57.1,0
	C815,615.2,815,615.2,815.1,610.4z"/>
<path class="st2" d="M763.6,455.4c0.3,1.2,0.8,2.3,0.8,3.5c0,37,0,74,0,111c0,1.2-0.5,2.3-0.8,3.5c-0.2-1.3-0.5-2.7-0.5-4
	c0-36.3,0-72.6,0-109C763,458.8,763.4,457.1,763.6,455.4z"/>
<path class="st3" d="M815.1,610.4c-0.1,4.8-0.1,4.8,4.7,4.8c19,0,38.1,0,57.1,0c1.7,0,3.3-0.5,5-0.8c0.8,2.4-0.9,2.1-2.3,2.1
	c-4.9,0-9.8,0-14.7,0c-15.8,0-31.5,0-47.3,0c-1.1,0-2.2,0-4.3,0C814,614.1,814.6,612.2,815.1,610.4z"/>
<path class="st4" d="M921.7,553.4c-0.1-4.3-0.1-8.7-0.2-13c0-25.6,0-51.3,0-76.9c0-1.6,0.2-3.2,0.2-4.8c0.3,1.1,0.9,2.3,0.9,3.4
	c0.1,29.3,0.1,58.7,0,88C922.7,551.3,922,552.4,921.7,553.4z"/>
<path class="st5" d="M774.4,555.4c0,1,0,2,0,3C772.8,557.4,772.8,556.4,774.4,555.4z"/>
<path class="st5" d="M774.4,458.3c0.1,0.2,0.1,0.4-0.1,0.7c-0.2-0.2-0.3-0.3-0.5-0.5C774.1,458.4,774.3,458.3,774.4,458.3z"/>
</svg>
