<?xml version="1.0" encoding="utf-8"?>
<!-- Generator: Adobe Illustrator 24.1.0, SVG Export Plug-In . SVG Version: 6.00 Build 0)  -->
<svg version="1.1" id="Calque_1" xmlns="http://www.w3.org/2000/svg" xmlns:xlink="http://www.w3.org/1999/xlink" x="0px" y="0px"
	 viewBox="0 0 1920 1080" style="enable-background:new 0 0 1920 1080;" xml:space="preserve">
<style type="text/css">
	.st0{fill:#020202;}
	.st1{fill:#615C5E;}
	.st2{fill:#3F3A3E;}
</style>
<g>
	<path class="st0" d="M965,482.8c0.3-3.5,0.8-7,0.9-10.5c0.1-4.2,0.2-8.3,3.6-11.5c0.6-0.5,1.1-1,1.7-1.6c1.8-0.8,3.7-1.6,5.5-2.4
		c0.6-0.1,1.1-0.2,1.7-0.2c13.4-0.1,26.9-0.4,40.3-0.1c7.8,0.2,12.6,5.9,12.7,13.8c0,3.9,0,7.9,0,12.1c7.1,0.5,13.4,2.7,18.3,7.7
		c4.9,4.9,7.7,10.8,7.7,17.7c0.1,31.1,0.2,62.2,0,93.3c-0.1,14.1-11.6,25.2-25.7,25.2c-48,0.1-95.9,0.1-143.9,0
		c-14.9,0-26.2-11.5-26.2-26.5c-0.1-29.9-0.1-59.8,0-89.7c0-15.1,8.6-24.9,23.6-27.4c1-0.2,2.3-0.9,2.7-1.7c1.8-4.4,5.4-6.3,9.6-7.4
		c6.2-1.6,12.3-1.3,18,2c1.3,0.8,3.2,1.8,3.5,3c1.2,4.8,4.8,3.9,8,3.9c12.4,0.1,24.8,0.1,37.1,0.2
		C964.4,482.8,964.7,482.8,965,482.8z M985.6,607.3c29,0,52.8-23.6,52.8-52.4c0-29.6-23.4-53.3-52.7-53.3c-28.8,0-52.8,23.6-52.9,52
		C932.8,583.5,956.2,607.3,985.6,607.3z M887.8,560.9c0,10.4,0,20.8,0,31.2c0,5,2.4,7.9,6.2,8c4.2,0.1,6.7-2.9,6.7-7.9
		c0-20.8,0-41.6,0-62.5c0-4.8-2.5-7.8-6.4-7.8c-3.9,0-6.5,3-6.5,7.8C887.8,540.1,887.8,550.5,887.8,560.9z M979.4,482.4
		c13,0,25.7,0,38.5,0c0-4.3,0-8.4,0-12.5c-13,0-25.7,0-38.5,0C979.4,474.1,979.4,478,979.4,482.4z"/>
	<path class="st1" d="M978.5,456.6c-0.6,0.1-1.1,0.2-1.7,0.2C977.4,456.8,977.9,456.7,978.5,456.6z"/>
	<path class="st1" d="M971.3,459.3c-0.6,0.5-1.1,1-1.7,1.6C970.1,460.3,970.7,459.8,971.3,459.3z"/>
	<path class="st2" d="M965,482.8c-0.3,0-0.6,0-0.9,0C964.4,482.8,964.7,482.8,965,482.8z"/>
	<path class="st0" d="M946.5,554.5c0-22,17.5-39.2,39.6-39.1c21.4,0.1,38.9,17.7,38.8,39.2c0,21.6-17.6,39.2-39.2,39.2
		C964,593.7,946.5,576.1,946.5,554.5z M972.6,554.3c7.3,0,13-5.7,13-13c0-7-5.7-12.9-12.7-13c-7.1-0.1-13.2,5.7-13.3,12.8
		C959.6,548.4,965.4,554.3,972.6,554.3z"/>
</g>
</svg>
